<?xml version="1.0" encoding="UTF-8"?>
<svg xmlns="http://www.w3.org/2000/svg" width="1024" height="675" viewBox="0 0 1024 675" role="img" aria-label="Renault Twingo profile picture">
  <rect width="1024" height="675" fill="#fff"/>
  <ellipse cx="512" cy="526" rx="382" ry="23" fill="#d9dde3" opacity="0.52"/>
  <path d="M121 388 C154 329 208 300 282 300 H498 C559 300 612 330 653 386 L775 401 C824 408 854 435 854 471 V504 H790 C783 455 745 421 696 421 C646 421 608 455 601 504 H323 C316 455 278 421 229 421 C180 421 142 455 135 504 H84 V450 C84 421 97 402 121 388 Z M282 324 H418 V368 H255 Z M443 324 H499 C548 324 586 339 618 368 H443 Z" fill="#f9fafb" stroke="#475569" stroke-width="5" stroke-linejoin="round"/>
  <path d="M121 388 C154 329 208 300 282 300 H498 C559 300 612 330 653 386 L775 401 C824 408 854 435 854 471 V504 H790 C783 455 745 421 696 421 C646 421 608 455 601 504 H323 C316 455 278 421 229 421 C180 421 142 455 135 504 H84 V450 C84 421 97 402 121 388 Z M282 324 H418 V368 H255 Z M443 324 H499 C548 324 586 339 618 368 H443 Z" fill="none" stroke="#ffffff" stroke-width="10" stroke-linejoin="round" opacity="0.72"/>
  <g fill="#101827" stroke="#0f172a" stroke-width="5">
    <circle cx="229" cy="504" r="70"/>
    <circle cx="696" cy="504" r="70"/>
  </g>
  <g fill="#f8fafc" stroke="#64748b" stroke-width="5">
    <circle cx="229" cy="504" r="43"/>
    <circle cx="696" cy="504" r="43"/>
  </g>
  <g stroke="#94a3b8" stroke-width="7" stroke-linecap="round">
    <path d="M229 465 V543"/>
    <path d="M190 504 H268"/>
    <path d="M201 476 L257 532"/>
    <path d="M257 476 L201 532"/>
    <path d="M696 465 V543"/>
    <path d="M657 504 H735"/>
    <path d="M668 476 L724 532"/>
    <path d="M724 476 L668 532"/>
  </g>
  <g fill="#334155" opacity="0.84">
    <path d="M262 326 H438 V369 H262 Z"/>
    <path d="M461 326 H595 C622 335 644 349 657 369 H461 Z"/>
  </g>
  <g stroke="#cbd5e1" stroke-width="4" stroke-linecap="round" opacity="0.9">
    <path d="M356 382 V467"/>
    <path d="M503 379 V468"/>
    <path d="M379 404 H419"/>
    <path d="M526 404 H566"/>
    <path d="M161 430 H218"/>
    <path d="M768 429 H821"/>
  </g>
  <path d="M127 399 C180 353 245 333 324 331 H580" fill="none" stroke="#ffffff" stroke-width="12" stroke-linecap="round" opacity="0.8"/>
</svg>
