<?xml version="1.0" encoding="UTF-8"?>
<svg xmlns="http://www.w3.org/2000/svg" width="1024" height="675" viewBox="0 0 1024 675" role="img" aria-label="UAZ Pickup profile picture">
  <rect width="1024" height="675" fill="#fff"/>
  <ellipse cx="512" cy="526" rx="382" ry="23" fill="#d9dde3" opacity="0.52"/>
  <path d="M142 377 C166 313 213 282 286 282 H446 C485 282 511 298 539 333 L609 333 C657 333 701 352 732 384 L799 398 C833 405 853 428 853 459 V504 H790 C783 455 745 421 696 421 C646 421 608 455 601 504 H326 C319 455 281 421 232 421 C183 421 145 455 138 504 H84 V448 C84 414 105 390 142 377 Z M278 306 H430 C464 306 483 318 506 346 H278 Z M153 346 H253 V280 H162 C143 299 136 322 153 346 Z" fill="#f9fafb" stroke="#475569" stroke-width="5" stroke-linejoin="round"/>
  <path d="M142 377 C166 313 213 282 286 282 H446 C485 282 511 298 539 333 L609 333 C657 333 701 352 732 384 L799 398 C833 405 853 428 853 459 V504 H790 C783 455 745 421 696 421 C646 421 608 455 601 504 H326 C319 455 281 421 232 421 C183 421 145 455 138 504 H84 V448 C84 414 105 390 142 377 Z M278 306 H430 C464 306 483 318 506 346 H278 Z M153 346 H253 V280 H162 C143 299 136 322 153 346 Z" fill="none" stroke="#ffffff" stroke-width="10" stroke-linejoin="round" opacity="0.72"/>
  <g fill="#101827" stroke="#0f172a" stroke-width="5">
    <circle cx="229" cy="504" r="70"/>
    <circle cx="696" cy="504" r="70"/>
  </g>
  <g fill="#f8fafc" stroke="#64748b" stroke-width="5">
    <circle cx="229" cy="504" r="43"/>
    <circle cx="696" cy="504" r="43"/>
  </g>
  <g stroke="#94a3b8" stroke-width="7" stroke-linecap="round">
    <path d="M229 465 V543"/>
    <path d="M190 504 H268"/>
    <path d="M201 476 L257 532"/>
    <path d="M257 476 L201 532"/>
    <path d="M696 465 V543"/>
    <path d="M657 504 H735"/>
    <path d="M668 476 L724 532"/>
    <path d="M724 476 L668 532"/>
  </g>
  <g fill="#334155" opacity="0.84">
    <path d="M262 326 H438 V369 H262 Z"/>
    <path d="M461 326 H595 C622 335 644 349 657 369 H461 Z"/>
  </g>
  <g stroke="#cbd5e1" stroke-width="4" stroke-linecap="round" opacity="0.9">
    <path d="M356 382 V467"/>
    <path d="M503 379 V468"/>
    <path d="M379 404 H419"/>
    <path d="M526 404 H566"/>
    <path d="M161 430 H218"/>
    <path d="M768 429 H821"/>
  </g>
  <path d="M127 399 C180 353 245 333 324 331 H580" fill="none" stroke="#ffffff" stroke-width="12" stroke-linecap="round" opacity="0.8"/>
</svg>
